<svg width="1440" height="560" viewBox="0 0 1440 560" fill="none" xmlns="http://www.w3.org/2000/svg">
<g clip-path="url(#clip0_89_1910)">
<mask id="mask0_89_1910" style="mask-type:luminance" maskUnits="userSpaceOnUse" x="0" y="0" width="1440" height="560">
<path d="M1440 0H0V560H1440V0Z" fill="white"/>
</mask>
<g mask="url(#mask0_89_1910)">
<path d="M1560 560H0V288.36C53.3333 261.693 93.3333 275.027 120 328.36C153.08 313.44 177.08 322.52 192 355.6C221.553 337.16 245.553 342.717 264 372.27C273.7 333.97 297.7 319.67 336 329.37C369.273 282.643 409.273 275.917 456 309.19C510.133 283.323 550.133 297.46 576 351.6C595.313 290.913 635.313 270.227 696 289.54C751.927 265.467 791.927 281.393 816 337.32C849.533 322.853 873.533 332.387 888 365.92C910.98 308.9 950.98 291.88 1008 314.86C1058.41 285.273 1098.41 295.687 1128 346.1C1177.37 315.46 1217.37 324.823 1248 374.19C1248.95 327.143 1272.95 304.093 1320 305.04C1353.82 258.86 1393.82 252.683 1440 286.51C1508.71 275.217 1548.71 303.927 1560 372.64V560Z" fill="#B7B7B7"/>
<path d="M1560 560H0V444.3C14.1867 410.487 38.1867 400.673 72 414.86C83.7667 378.627 107.767 366.393 144 378.16C174.107 360.267 198.107 366.37 216 396.47C244.587 345.063 284.587 333.653 336 362.24C395.207 341.447 435.207 360.653 456 419.86C499.62 383.487 539.62 387.11 576 430.73C593.28 368.01 633.28 345.293 696 362.58C724.46 343.04 748.46 347.503 768 375.97C797.347 357.323 821.347 362.673 840 392.02C879.26 383.28 903.26 398.543 912 437.81C926.993 404.797 950.993 395.787 984 410.78C992.5 371.28 1016.5 355.783 1056 364.29C1092.15 320.437 1132.15 316.583 1176 352.73C1221.05 349.777 1245.05 370.823 1248 415.87C1262.99 382.863 1286.99 373.857 1320 388.85C1379.38 368.23 1419.38 387.607 1440 446.98C1476.5 403.48 1516.5 399.98 1560 436.48V560Z" fill="#C6C6C6"/>
<path d="M1464 560H0V462.34C29.7733 412.113 69.7733 401.883 120 431.65C176.407 408.057 216.407 424.463 240 480.87C272.86 433.73 312.86 426.593 360 459.46C396.32 415.78 436.32 412.1 480 448.42C514.147 402.567 554.147 396.713 600 430.86C667.587 418.447 707.587 446.03 720 513.61C737.687 451.297 777.687 428.987 840 446.68C890.18 416.867 930.18 427.05 960 477.23C997.493 466.723 1021.49 480.217 1032 517.71C1037.17 474.877 1061.17 456.04 1104 461.2C1131.65 440.847 1155.65 444.497 1176 472.15C1183.29 431.437 1207.29 414.727 1248 422.02C1275.47 401.487 1299.47 404.95 1320 432.41C1369.32 433.73 1393.32 459.053 1392 508.38C1398.38 466.753 1422.38 449.13 1464 455.51V560Z" fill="#E6E6E6"/>
<path d="M1536 560H0V561.17C48.3067 529.477 88.3067 537.78 120 586.08C132.167 550.247 156.167 538.41 192 550.57C214.947 493.517 254.947 476.463 312 499.41C361.293 468.703 401.293 477.993 432 527.28C487.02 502.3 527.02 517.317 552 572.33C556.787 529.117 580.787 509.903 624 514.69C643.04 485.73 667.04 480.773 696 499.82C754.52 478.34 794.52 496.86 816 555.38C849.313 540.693 873.313 550.007 888 583.32C896.947 544.273 920.947 529.223 960 538.17C989.653 519.823 1013.65 525.477 1032 555.13C1039.55 514.683 1063.55 498.237 1104 505.79C1134.51 488.303 1158.51 494.813 1176 525.32C1226.05 495.36 1266.05 505.403 1296 555.45C1342.46 521.91 1382.46 528.373 1416 574.84C1428.7 507.533 1468.7 480.23 1536 492.93V560Z" fill="white"/>
</g>
</g>
<defs>
<clipPath id="clip0_89_1910">
<rect width="1440" height="560" fill="white"/>
</clipPath>
</defs>
</svg>
